<?xml version="1.0" encoding="UTF-8"?>
<svg xmlns="http://www.w3.org/2000/svg" xmlns:xlink="http://www.w3.org/1999/xlink" width="300pt" height="187.499995pt" viewBox="0 0 300 187.499995" version="1.2">
<defs>
<clipPath id="clip1">
  <path d="M 5.109375 64 L 254 64 L 254 187 L 5.109375 187 Z M 5.109375 64 "/>
</clipPath>
</defs>
<g id="surface1">
<path style=" stroke:none;fill-rule:nonzero;fill:rgb(13.729858%,12.159729%,12.548828%);fill-opacity:1;" d="M 291.644531 153.34375 L 250.972656 112.539062 L 264.101562 112.539062 C 267.082031 112.539062 269.777344 110.738281 270.914062 107.972656 C 272.050781 105.203125 271.421875 102.023438 269.316406 99.910156 L 238.890625 69.367188 L 243.664062 69.367188 C 246.648438 69.367188 249.335938 67.570312 250.476562 64.800781 C 251.613281 62.035156 250.984375 58.863281 248.875 56.742188 L 210.046875 17.773438 C 207.285156 14.996094 202.390625 14.996094 199.625 17.773438 L 160.800781 56.742188 C 158.691406 58.859375 158.0625 62.035156 159.203125 64.800781 C 160.339844 67.570312 163.035156 69.367188 166.015625 69.367188 L 169.730469 69.367188 L 159.316406 79.019531 C 156.328125 81.785156 156.140625 86.464844 158.90625 89.46875 C 161.660156 92.472656 166.324219 92.660156 169.320312 89.882812 L 193.582031 67.410156 C 195.816406 65.335938 196.554688 62.117188 195.449219 59.273438 C 194.34375 56.4375 191.621094 54.570312 188.582031 54.570312 L 183.804688 54.570312 L 204.835938 33.460938 L 225.871094 54.570312 L 221.089844 54.570312 C 218.113281 54.570312 215.421875 56.371094 214.285156 59.136719 C 213.140625 61.894531 213.777344 65.078125 215.878906 67.199219 L 246.308594 97.734375 L 233.183594 97.734375 C 230.199219 97.734375 227.507812 99.539062 226.371094 102.296875 C 225.230469 105.066406 225.863281 108.246094 227.96875 110.367188 L 268.636719 151.175781 L 255.570312 151.175781 C 251.5 151.175781 248.199219 154.492188 248.199219 158.578125 C 248.199219 162.660156 251.503906 165.964844 255.570312 165.964844 L 286.429688 165.964844 C 289.414062 165.964844 292.101562 164.167969 293.242188 161.410156 C 294.382812 158.648438 293.75 155.46875 291.644531 153.347656 Z M 291.644531 153.34375 "/>
<g clip-path="url(#clip1)" clip-rule="nonzero">
<path style=" stroke:none;fill-rule:nonzero;fill:rgb(13.729858%,12.159729%,12.548828%);fill-opacity:1;" d="M 253.929688 178.582031 C 253.910156 178.316406 253.890625 178.058594 253.84375 177.792969 C 253.800781 177.546875 253.730469 177.308594 253.660156 177.078125 C 253.59375 176.851562 253.539062 176.636719 253.449219 176.410156 C 253.347656 176.144531 253.214844 175.902344 253.082031 175.65625 C 253.007812 175.515625 252.964844 175.371094 252.882812 175.230469 L 211.109375 107.394531 C 211.101562 107.375 211.085938 107.363281 211.082031 107.355469 C 210.875 107.027344 210.628906 106.722656 210.378906 106.433594 C 210.3125 106.355469 210.257812 106.265625 210.191406 106.1875 C 209.789062 105.765625 209.316406 105.40625 208.824219 105.078125 C 208.515625 104.882812 208.203125 104.683594 207.867188 104.535156 C 207.746094 104.488281 207.613281 104.457031 207.484375 104.40625 C 207.15625 104.285156 206.824219 104.160156 206.484375 104.078125 C 206.46875 104.078125 206.449219 104.066406 206.429688 104.066406 L 156.761719 93.042969 L 81.152344 64.832031 C 81.019531 64.78125 80.871094 64.761719 80.730469 64.71875 C 80.542969 64.660156 80.355469 64.617188 80.164062 64.578125 C 79.746094 64.484375 79.332031 64.441406 78.921875 64.421875 C 78.808594 64.410156 78.699219 64.371094 78.589844 64.371094 L 78.574219 64.371094 C 78.53125 64.371094 78.488281 64.390625 78.449219 64.390625 C 77.886719 64.402344 77.332031 64.46875 76.789062 64.609375 C 76.652344 64.648438 76.527344 64.707031 76.394531 64.75 C 75.996094 64.867188 75.605469 65.023438 75.230469 65.222656 C 75.054688 65.308594 74.886719 65.410156 74.722656 65.515625 C 74.390625 65.722656 74.082031 65.957031 73.785156 66.214844 C 73.65625 66.335938 73.511719 66.441406 73.390625 66.5625 C 72.992188 66.957031 72.632812 67.390625 72.328125 67.878906 C 72.320312 67.886719 72.3125 67.898438 72.304688 67.90625 L 6.675781 175.402344 C 5.285156 177.679688 5.222656 180.53125 6.527344 182.867188 C 7.824219 185.203125 10.269531 186.652344 12.933594 186.664062 L 145.105469 187.226562 L 145.1875 187.226562 L 246.671875 186.523438 C 246.695312 186.523438 246.71875 186.511719 246.742188 186.511719 C 247.15625 186.503906 247.570312 186.457031 247.976562 186.382812 C 248.09375 186.363281 248.203125 186.335938 248.3125 186.316406 C 248.691406 186.21875 249.074219 186.109375 249.441406 185.949219 C 249.476562 185.9375 249.519531 185.929688 249.550781 185.910156 C 249.871094 185.769531 250.1875 185.613281 250.488281 185.417969 C 250.539062 185.390625 250.574219 185.339844 250.613281 185.316406 C 250.84375 185.167969 251.054688 185 251.265625 184.816406 C 251.4375 184.675781 251.613281 184.550781 251.765625 184.402344 C 251.941406 184.234375 252.085938 184.042969 252.238281 183.855469 C 252.390625 183.679688 252.554688 183.5 252.695312 183.300781 C 252.824219 183.105469 252.929688 182.898438 253.042969 182.691406 C 253.15625 182.484375 253.28125 182.285156 253.371094 182.066406 C 253.46875 181.839844 253.53125 181.605469 253.605469 181.371094 C 253.679688 181.152344 253.753906 180.925781 253.808594 180.699219 C 253.855469 180.480469 253.871094 180.253906 253.898438 180.027344 C 253.933594 179.765625 253.972656 179.503906 253.976562 179.238281 C 253.976562 179.179688 253.996094 179.128906 253.996094 179.070312 C 253.980469 178.902344 253.941406 178.742188 253.929688 178.582031 Z M 153.078125 107.371094 L 200.210938 117.820312 L 233.449219 171.808594 L 149.21875 172.40625 L 96.140625 86.195312 L 152.101562 107.082031 C 152.414062 107.199219 152.746094 107.296875 153.078125 107.371094 Z M 70.816406 98.644531 L 59.777344 172.066406 L 26.089844 171.925781 Z M 75.105469 119.707031 L 75.328125 172.132812 L 67.230469 172.101562 Z M 82.699219 172.160156 L 82.359375 91.957031 L 131.875 172.378906 Z M 82.699219 172.160156 "/>
</g>
<path style=" stroke:none;fill-rule:nonzero;fill:rgb(13.729858%,12.159729%,12.548828%);fill-opacity:1;" d="M 55.125 50.019531 C 66.472656 50.019531 76.289062 42.292969 78.976562 31.234375 C 79.367188 29.632812 78.660156 27.976562 77.238281 27.152344 C 75.820312 26.332031 74.03125 26.546875 72.855469 27.679688 C 70.667969 29.78125 67.804688 30.933594 64.792969 30.933594 C 58.359375 30.933594 53.128906 25.683594 53.128906 19.230469 C 53.128906 14.410156 56.15625 10.019531 60.652344 8.300781 C 62.183594 7.714844 63.152344 6.191406 63.015625 4.546875 C 62.886719 2.90625 61.695312 1.550781 60.085938 1.21875 C 58.460938 0.882812 56.789062 0.714844 55.125 0.714844 C 41.578125 0.714844 30.558594 11.773438 30.558594 25.363281 C 30.558594 38.960938 41.578125 50.019531 55.125 50.019531 Z M 48.476562 9.457031 C 46.742188 12.367188 45.765625 15.730469 45.765625 19.234375 C 45.765625 29.769531 54.300781 38.335938 64.796875 38.335938 C 65.394531 38.335938 65.988281 38.3125 66.582031 38.253906 C 63.515625 40.996094 59.480469 42.621094 55.128906 42.621094 C 45.644531 42.621094 37.9375 34.882812 37.9375 25.367188 C 37.933594 18.222656 42.289062 12.070312 48.476562 9.457031 Z M 48.476562 9.457031 "/>
</g>
</svg>
